<?xml version="1.0" encoding="UTF-8" standalone="no"?>
        <svg 
    viewBox="16.552734375 -74.7802734375 282.275390625 49.5849609375"
    width="265.72265625"
    height="124.365234375"
   xmlns="http://www.w3.org/2000/svg"
   xmlns:svg="http://www.w3.org/2000/svg">
   <path d="M41.89-38.96L41.89-38.96Q41.89-41.60 42.63-42.92L42.63-42.92L44.24-45.56L77.20-45.56Q98.88-45.56 105.18-45.34Q111.47-45.12 111.47-44.09L111.47-44.09Q113.09-39.84 113.09-20.58Q113.09-1.32 111.47 4.25L111.47 4.25L110.16 7.18L42.63 7.18L42.92-7.18Q42.92-13.48 42.77-20.21Q42.63-26.95 42.33-30.91L42.33-30.91Q41.89-36.33 41.89-38.96ZM22.41-45.56L22.41-45.56Q28.13-50.83 38.96-59.03L38.96-59.03Q45.26-63.87 50.39-68.48Q55.52-73.10 59.77-77.78L59.77-77.78Q63.43-81.74 66.65-84.89Q69.87-88.04 71.19-89.06L71.19-89.06Q72.51-89.94 73.54-90.60Q74.56-91.26 75.15-91.26L75.15-91.26Q76.17-91.26 81.15-87.16Q86.13-83.06 95.36-74.56L95.36-74.56Q97.71-72.51 101.44-69.51Q105.18-66.50 108.25-63.87L108.25-63.87Q125.24-50.68 129.27-46.80Q133.30-42.92 133.30-41.02L133.30-41.02Q133.30-40.87 133.30-40.58L133.30-40.58Q133.30-38.23 132.28-36.77Q131.25-35.30 129.64-35.30L129.64-35.30Q128.91-35.30 126.42-36.62Q123.93-37.94 120.70-40.14L120.70-40.14Q117.48-41.89 115.14-43.21Q112.79-44.53 112.50-44.82L112.50-44.82Q112.06-44.82 111.77-44.97Q111.47-45.12 111.47-45.41L111.47-45.41Q111.47-45.85 110.30-46.80Q109.13-47.75 107.52-49.07L107.52-49.07Q105.62-50.39 100.78-54.57Q95.95-58.74 90.09-64.01L90.09-64.01Q84.52-69.14 80.49-72.80Q76.46-76.46 75.88-76.76L75.88-76.76Q75.29-76.76 73.46-75.29Q71.63-73.83 69.58-71.78L69.58-71.78Q63.72-65.33 59.25-61.16Q54.79-56.98 50.83-53.76L50.83-53.76Q48.49-52.15 45.04-49.44Q41.60-46.73 38.67-44.09L38.67-44.09Q33.98-39.84 30.03-37.35Q26.07-34.86 22.41-33.69L22.41-33.69Q21.97-33.54 21.39-33.54L21.39-33.54Q19.78-33.54 18.16-34.86Q16.55-36.18 16.55-38.23L16.55-38.23Q16.55-40.28 22.41-45.56ZM52.44-35.30L52.88-33.25Q53.17-32.23 53.32-27.61Q53.47-23.00 53.47-16.85L53.47-16.85L53.47-2.93L100.93-2.93L101.51-5.86Q101.66-7.32 101.81-11.87Q101.95-16.41 101.95-22.12L101.95-22.12L101.95-35.30L52.44-35.30ZM23.88-79.54L23.88-79.54Q25.20-82.47 28.71-86.28L28.71-86.28Q32.37-90.23 38.60-96.90Q44.82-103.56 47.46-106.79L47.46-106.79Q48.78-108.11 50.17-108.18Q51.56-108.25 51.71-108.25L51.71-108.25Q53.91-108.25 55.37-107.08L55.37-107.08Q56.54-105.91 56.54-104.15L56.54-104.15Q56.54-102.25 54.49-98.07Q52.44-93.90 44.82-85.69L44.82-85.69Q36.04-76.76 32.52-74.93Q29.00-73.10 27.25-73.10L27.25-73.10Q25.34-73.10 23.88-74.56L23.88-74.56Q23.29-75.59 23.29-76.76L23.29-76.76Q23.29-78.08 23.88-79.54ZM90.67-105.91L90.67-105.91Q90.97-107.52 92.29-108.69L92.29-108.69Q93.31-110.16 95.07-110.16L95.07-110.16Q95.80-110.16 97.56-109.64Q99.32-109.13 104.30-105.47L104.30-105.47Q113.38-98.88 119.02-92.65Q124.66-86.43 124.66-82.76L124.66-82.76Q124.66-80.71 123.12-79.47Q121.58-78.22 119.97-78.22L119.97-78.22Q119.38-78.22 118.80-78.37L118.80-78.37Q117.77-78.52 116.09-80.27Q114.40-82.03 112.50-84.08L112.50-84.08Q110.45-86.43 107.01-89.50Q103.56-92.58 99.90-94.92L99.90-94.92Q96.39-97.56 93.90-99.54Q91.41-101.51 91.11-102.25L91.11-102.25Q90.53-103.56 90.53-104.88L90.53-104.88Q90.53-105.47 90.67-105.91ZM170.07-11.72L170.07-11.72Q170.21-14.65 171.53-15.97L171.53-15.97Q172.27-16.70 177.83-17.07Q183.40-17.43 196.88-17.72L196.88-17.72L220.90-18.31L220.90-23.88L205.22-24.02Q194.53-24.32 191.89-24.76Q189.26-25.20 189.26-26.51L189.26-26.51Q188.67-27.83 188.31-34.13Q187.94-40.43 187.94-48.93L187.94-48.93Q187.79-55.96 187.79-60.35L187.79-60.35Q187.79-63.72 187.94-66.72Q188.09-69.73 188.96-70.02L188.96-70.02Q189.70-70.17 194.09-70.46Q198.49-70.75 204.49-70.75L204.49-70.75L218.41-70.75L218.41-77.64L204.20-77.64Q196.88-77.64 193.29-77.86Q189.70-78.08 189.26-78.66L189.26-78.66Q187.94-80.57 187.94-82.54Q187.94-84.52 189.26-85.99L189.26-85.99Q189.99-87.30 192.77-87.60Q195.56-87.89 204.79-87.89L204.79-87.89L218.41-87.89L218.41-90.82Q218.41-91.85 218.85-93.02Q219.29-94.19 220.02-95.07L220.02-95.07Q221.34-96.39 222.44-96.46Q223.54-96.53 223.68-96.53L223.68-96.53Q225.59-96.53 226.61-95.21L226.61-95.21Q227.20-94.78 227.56-93.68Q227.93-92.58 228.22-91.26L228.22-91.26L228.52-88.48L236.43-88.18Q253.56-87.89 256.93-87.01Q260.30-86.13 260.30-83.64L260.30-83.64Q260.30-83.20 260.16-82.62L260.16-82.62Q260.16-82.32 260.16-82.18L260.16-82.18Q260.16-79.69 257.30-78.88Q254.44-78.08 247.56-78.08L247.56-78.08Q246.39-78.08 245.07-78.08L245.07-78.08Q240.38-78.37 236.43-78.37Q232.47-78.37 231.45-78.08L231.45-78.08Q229.83-77.93 229.61-77.49Q229.39-77.05 229.39-76.61L229.39-76.61Q229.39-75.88 229.83-74.41L229.83-74.41L230.27-71.34L245.95-70.75Q252.54-70.46 257.01-70.31Q261.47-70.17 261.77-70.17L261.77-70.17Q263.09-68.70 263.53-64.60Q263.96-60.50 263.96-54.93L263.96-54.93Q263.96-51.71 263.82-47.75L263.82-47.75Q263.53-38.53 263.16-34.20Q262.79-29.88 261.91-27.98L261.91-27.98L260.45-24.32L231.59-24.32L231.59-17.72L236.72-17.72Q249.02-17.72 263.01-16.92Q277.00-16.11 278.91-15.67L278.91-15.67Q279.35-15.09 279.79-14.21Q280.22-13.33 280.66-12.16L280.66-12.16Q280.81-11.57 280.81-10.99L280.81-10.99Q280.81-10.40 280.59-9.59Q280.37-8.79 279.05-8.06L279.05-8.06Q278.32-6.88 274.73-6.59Q271.14-6.30 265.43-6.30L265.43-6.30Q260.89-6.30 254.30-6.45L254.30-6.45L231.59-6.45L231.59 1.17Q231.59 6.01 231.23 7.84Q230.86 9.67 229.83 10.69L229.83 10.69Q227.93 12.60 226.10 12.60Q224.27 12.60 222.66 10.69L222.66 10.69Q221.34 9.67 221.12 7.69Q220.90 5.71 220.90 1.17L220.90 1.17L221.04-6.45L196.58-6.45Q183.40-6.45 177.47-6.67Q171.53-6.88 171.24-7.47L171.24-7.47Q170.07-8.64 170.07-11.13L170.07-11.13Q170.07-11.43 170.07-11.72ZM168.31-110.01L168.31-110.01Q168.31-110.16 168.31-110.16L168.31-110.16Q168.31-111.33 172.92-111.55Q177.54-111.77 182.52-111.77L182.52-111.77Q192.33-111.77 212.11-111.33L212.11-111.33Q230.27-111.04 246.09-110.96Q261.91-110.89 268.07-110.89L268.07-110.89L280.96-110.89L281.98-108.25Q282.28-106.64 282.28-103.86L282.28-103.86Q282.28-99.76 281.32-90.82Q280.37-81.88 279.05-78.96L279.05-78.96Q277.73-77.64 275.68-77.64Q273.63-77.64 272.31-78.96L272.31-78.96Q270.41-80.57 270.19-82.54Q269.97-84.52 269.97-85.84L269.97-85.84Q269.97-88.48 270.41-92.14L270.41-92.14L271.14-99.02L225.59-99.46Q206.40-99.76 197.68-99.83Q188.96-99.90 185.89-99.90L185.89-99.90Q180.03-99.90 179.74-99.76L179.74-99.76Q179.59-99.61 179.59-99.02L179.59-99.02Q179.59-98.44 179.81-96.83Q180.03-95.21 180.47-92.14L180.47-92.14Q180.76-89.21 180.98-87.16Q181.20-85.11 181.20-84.08L181.20-84.08Q181.20-83.20 181.05-82.62L181.05-82.62Q180.18-80.57 178.64-79.69Q177.10-78.81 175.93-78.81L175.93-78.81Q175.34-78.81 174.76-78.96L174.76-78.96Q172.27-79.69 170.95-82.76Q169.63-85.84 169.19-92.58L169.19-92.58Q167.87-102.98 167.80-104.81Q167.72-106.64 167.72-107.08L167.72-107.08Q167.72-109.42 168.31-110.01ZM231.59-44.38L231.59-34.57L252.25-35.16L252.69-44.38L231.59-44.38ZM198.93-41.75L198.93-41.75Q198.93-41.16 199.22-39.99Q199.51-38.82 199.51-37.50L199.51-37.50L199.51-34.86L220.31-34.86L219.73-43.80L214.31-43.80Q205.08-43.80 201.93-43.36Q198.78-42.92 198.78-42.04L198.78-42.04Q198.78-41.89 198.93-41.75ZM230.57-56.98L230.57-56.98L230.86-53.61L252.69-54.20L252.98-57.86L252.98-61.23L241.99-61.23Q237.45-61.23 234.16-61.08Q230.86-60.94 230.57-60.94L230.57-60.94Q230.27-60.79 230.27-59.69Q230.27-58.59 230.57-56.98ZM199.51-60.21L199.51-53.61L218.99-54.20L218.99-57.57Q218.99-58.01 218.99-58.30L218.99-58.30Q218.99-60.35 217.90-60.64Q216.80-60.94 214.01-60.94L214.01-60.94Q211.52-60.94 207.71-60.79L207.71-60.79L199.51-60.21Z"/>
    </svg>
        