<svg width="257" height="257" version="1.1" xmlns="http://www.w3.org/2000/svg" xmlns:xlink="http://www.w3.org/1999/xlink"><path d="M129.27 5.65L129.27 5.65L130.04 4.88Q152.66 11.31 156.26 12.85L156.26 12.85Q177.07 21.33 179.39 36.49L179.39 36.49Q179.90 39.06 178.87 42.15L178.87 42.15Q177.59 46.26 175.02 46.26L175.02 46.26Q173.73 46.26 170.39 44.20L170.39 44.20Q165.77 41.38 153.17 29.56L153.17 29.56L149.32 26.21L134.41 14.91Q132.87 13.62 131.33 12.08L131.33 12.08Q129.27 10.02 129.27 5.65ZM75.56 33.15L75.56 33.15Q59.11 50.89 52.69 56.03L52.69 56.03Q46.00 61.42 39.06 64.76L39.06 64.76L34.44 64.76L34.44 61.68Q51.91 43.43 64.51 25.19L64.51 25.19Q69.13 18.50 70.16 15.16L70.16 15.16L69.65 7.20Q70.16 5.91 72.22 5.40L72.22 5.40Q76.33 4.37 84.55 10.54L84.55 10.54Q89.95 14.65 89.95 17.48L89.95 17.48Q89.95 20.56 82.75 25.96L82.75 25.96L77.36 30.33Q76.33 31.87 75.56 33.15ZM232.84 125.16L233.36 126.70Q226.42 129.53 206.11 131.84L206.11 131.84Q190.44 133.38 187.61 133.13L187.61 133.13Q180.41 132.61 176.05 128.50L176.05 128.50Q157.54 111.80 118.99 70.16L118.99 70.16Q115.39 66.31 112.57 63.22L112.57 63.22Q86.35 96.89 58.85 120.79L58.85 120.79L72.73 125.16Q91.23 126.19 125.16 119.25L125.16 119.25Q133.13 117.71 140.06 115.91L140.06 115.91Q148.80 117.45 159.34 124.90L159.34 124.90Q162.17 126.96 163.45 128.50L163.45 128.50Q165.51 130.81 165.51 134.93L165.51 134.93Q165.25 135.70 165.25 136.47L165.25 136.47Q154.71 144.18 148.55 158.57L148.55 158.57Q143.41 161.65 148.03 165.77L148.03 165.77Q152.66 169.62 152.91 170.91L152.91 170.91Q153.17 172.45 151.89 173.73L151.89 173.73Q117.71 173.99 77.87 178.36L77.87 178.36Q77.87 182.98 76.33 187.61L76.33 187.61Q72.22 187.61 68.36 180.93L68.36 180.93Q66.82 177.33 65.53 164.22L65.53 164.22Q65.28 162.42 65.02 160.88L65.02 160.88Q61.68 139.81 54.48 124.13L54.48 124.13Q33.41 138.52 28.01 141.35L28.01 141.35Q15.42 148.03 3.85 148.80L3.85 148.80L3.08 148.03Q44.20 119.25 62.45 102.29L62.45 102.29Q100.49 66.56 100.49 38.04L100.49 38.04Q103.83 32.13 115.65 42.41L115.65 42.41Q120.53 47.03 121.82 49.60L121.82 49.60Q121.82 52.43 118.22 56.03L118.22 56.03L116.16 58.85L149.57 87.38Q162.94 98.43 174.50 105.37L174.50 105.37Q186.33 112.57 213.05 119.50L213.05 119.50Q226.16 122.85 232.84 125.16L232.84 125.16ZM127.73 128.50L74.53 133.64L77.87 168.59L130.04 162.94Q134.15 156.77 135.95 146.49L135.95 146.49Q138.27 135.18 138.27 133.90L138.27 133.90Q137.75 127.47 127.73 128.50L127.73 128.50Z" stroke="#000" fill="black" /></svg>