<svg width="257" height="257" version="1.1" xmlns="http://www.w3.org/2000/svg" xmlns:xlink="http://www.w3.org/1999/xlink"><path d="M200.20 41.61L200.20 41.61Q200.20 43.66 196.35 45.20L196.35 45.20Q185.55 46.23 164.74 55.74L164.74 55.74Q163.19 56.51 161.91 57.03L161.91 57.03L159.08 57.03L159.08 54.71L170.13 35.44Q170.13 33.38 167.82 32.35L167.82 32.35Q140.58 32.87 105.11 38.78L105.11 38.78L80.18 44.43L76.59 44.69L65.79 45.20L57.83 68.33Q53.46 78.87 49.60 79.38L49.60 79.38L48.57 78.87Q42.15 73.22 42.15 60.62L42.15 60.62Q51.40 47.77 52.94 44.18L52.94 44.18Q54.74 40.32 55.26 36.72L55.26 36.72L55.77 30.30Q56.03 29.53 59.62 29.53L59.62 29.53Q61.17 30.30 64.76 35.69L64.76 35.69L66.31 37.75L167.31 23.87Q180.93 22.07 194.03 34.41L194.03 34.41Q197.12 37.49 200.20 41.61ZM217.68 165.99L217.68 165.99Q218.71 168.82 217.42 170.11L217.42 170.11L215.37 171.39Q147.78 171.90 142.63 172.16L142.63 172.16Q131.07 172.68 120.79 173.45L120.79 173.45Q121.56 185.01 120.79 203.52L120.79 203.52Q119.25 237.18 113.85 242.07L113.85 242.07Q108.20 241.81 107.68 226.13L107.68 226.13Q107.68 225.10 107.68 224.33L107.68 224.33L106.91 174.99Q78.90 176.53 56.03 181.67L56.03 181.67L35.98 186.30Q29.81 187.07 23.64 183.21L23.64 183.21Q20.30 181.16 18.25 178.33L18.25 178.33Q18.25 176.27 19.02 175.76L19.02 175.76L106.40 166.76L107.43 144.66Q91.49 146.20 82.75 147.49L82.75 147.49L81.21 151.34L80.70 151.60Q74.02 151.60 69.90 133.61L69.90 133.61Q68.88 129.24 68.62 127.96L68.62 127.96Q64.51 112.79 56.28 97.89L56.28 97.89Q56.28 95.83 57.31 94.29L57.31 94.29Q63.74 94.55 70.93 96.86L70.93 96.86L107.68 90.69L108.20 75.53L90.72 76.04Q82.50 75.27 78.39 71.67L78.39 71.67Q78.39 68.33 104.60 66.53L104.60 66.53Q106.40 66.28 106.91 66.28L106.91 66.28Q108.45 61.91 101.52 48.54L101.52 48.54Q100.74 47.26 100.23 45.97L100.23 45.97Q99.97 38.52 113.08 43.92L113.08 43.92Q119.76 46.49 121.82 49.06L121.82 49.06Q124.39 51.89 122.33 58.82L122.33 58.82Q121.56 61.14 121.56 62.68L121.56 62.68L138.78 59.34Q145.98 58.82 151.12 63.45L151.12 63.45Q151.12 67.05 148.80 67.31L148.80 67.31L120.79 72.70Q120.02 75.53 120.02 88.64L120.02 88.64Q124.39 88.38 144.69 84.78L144.69 84.78Q153.43 83.24 159.34 83.24L159.34 83.24Q166.79 83.24 171.16 87.35L171.16 87.35L172.96 89.15L178.36 94.29Q179.64 96.09 179.64 97.63L179.64 97.63Q179.90 99.17 174.76 104.31L174.76 104.31L172.96 106.37Q171.93 108.17 165.25 127.19L165.25 127.19Q157.54 149.03 150.34 149.03L150.34 149.03Q148.29 148.00 145.46 143.63L145.46 143.63Q143.15 139.78 138.27 140.29L138.27 140.29L120.02 142.61L120.02 164.71L124.64 164.71L189.15 155.20Q202.00 153.40 212.03 161.37L212.03 161.37Q214.34 163.17 217.68 165.99ZM157.54 96.35L157.54 96.35L154.46 93.26Q142.89 92.49 132.87 93.52L132.87 93.52Q126.44 94.29 120.28 95.58L120.28 95.58L120.28 107.91Q133.13 105.60 138.27 109.45L138.27 109.45L139.81 111.00L139.29 114.08L120.28 118.45L120.02 118.45L120.28 133.61Q132.10 129.50 140.84 131.81L140.84 131.81Q142.89 132.33 144.69 133.10L144.69 133.10Q151.12 130.78 156.77 100.72L156.77 100.72Q157.28 98.15 157.54 96.35ZM107.43 135.92L107.68 121.02L97.66 122.82Q95.86 122.82 93.81 122.30L93.81 122.30Q90.98 119.99 90.98 118.45L90.98 118.45Q98.17 114.85 107.68 112.28L107.68 112.28L107.68 97.63Q77.87 103.80 74.53 104.83L74.53 104.83L82.24 140.29L107.43 135.92Z" stroke="#000" fill="black" /></svg>